<svg width="120" height="56" viewBox="0 0 120 56" fill="none" xmlns="http://www.w3.org/2000/svg">
<path d="M120 27.7182C120.119 43.4292 94.9784 55.7931 60.2118 55.9981C29.5217 56.1774 0.12001 43.8561 0.000372171 28.4098C-0.119258 12.972 28.6199 0.181163 59.7885 0.00187095C91.132 -0.177421 119.88 12.5536 120 27.7182Z" fill="#C69458"/>
<path d="M116.314 27.3084C116.424 42.7888 92.8286 54.9649 60.2155 55.1613C31.4395 55.3406 3.85063 43.1987 3.73102 27.9914C3.6206 12.7757 30.5745 0.181262 59.8198 0.00189989C89.2028 -0.177392 116.203 12.3573 116.314 27.3084Z" fill="#E1251B"/>
<path d="M69.2338 24.6291L69.9241 23.8862L65.544 19.3778C70.8168 18.9424 69.4461 15.0402 69.4461 15.0402C68.1115 11.7443 64.5042 13.3325 64.5042 13.3325C64.4397 13.4179 62.2403 22.9384 62.2403 22.9384C62.1852 23.7069 61.725 23.4764 61.725 23.4764C55.9827 21.1112 53.314 23.5276 53.314 23.5276C53.2772 23.5617 53.2496 23.6044 53.2312 23.6557C53.2128 23.7069 53.2128 23.7496 53.2219 23.8009C53.2312 23.8521 53.2587 23.8947 53.2864 23.9374C53.3232 23.9802 53.3692 24.0057 53.4152 24.0314C53.5165 24.0655 53.6176 24.0655 53.7189 24.0484C53.8201 24.0314 53.9121 23.9887 53.995 23.9289C56.9765 21.9735 60.8324 23.9289 60.8324 23.9289C61.3753 24.39 60.5103 24.2534 60.5103 24.2534C53.9674 22.1187 53.314 25.5171 53.314 25.5171C53.1668 27.6346 56.0195 27.8652 56.0195 27.8652H58.2925C58.5042 27.276 58.6606 27.2248 58.6606 27.2248C60.2066 26.7979 62.1484 25.0389 62.1484 25.0389C64.7802 26.1746 66.2894 25.7562 66.2894 25.7562C66.5195 25.7049 66.7311 25.6024 66.9151 25.4573C67.0993 25.3207 67.2372 25.1414 67.3385 24.945C67.4305 24.7486 67.4765 24.5352 67.4673 24.3132C67.4581 24.0997 67.3937 23.8862 67.2833 23.6984C67.1636 23.4422 66.9796 23.2031 66.7495 23.0153C66.5195 22.8274 66.2526 22.6737 65.9581 22.5884C65.8385 22.5798 65.7096 22.6054 65.6084 22.6652C65.5716 22.6737 65.544 22.6994 65.5164 22.725C65.4888 22.7506 65.4796 22.7847 65.4704 22.8189C65.4704 22.853 65.4704 22.8872 65.4888 22.9214C65.5072 22.9555 65.5348 22.9726 65.5624 22.9897C65.7465 23.0238 65.9213 23.1092 66.0594 23.2287C66.1974 23.3483 66.2986 23.502 66.3446 23.6727C66.4551 25.3549 63.4366 24.3046 63.4366 24.3046L64.3569 19.9328L69.2338 24.6291ZM65.9489 14.0668C65.9489 14.0668 67.6974 13.5716 68.0931 15.5782C68.0931 15.5782 68.498 17.5506 66.4826 18.3703C66.4826 18.3703 65.3231 18.8314 64.8446 18.1995L65.9489 14.0668ZM56.3232 26.943C56.0839 26.9516 55.8447 26.926 55.6054 26.8833C53.9306 26.5673 54.4459 25.3122 54.4459 25.3122C55.6974 22.9384 60.5287 24.9792 60.5287 24.9792C60.7219 25.2268 59.6821 25.9099 59.6821 25.9099C58.6514 26.4563 57.5103 26.7979 56.3232 26.9174V26.943Z" fill="white"/>
<path d="M61.0812 20.723L63.4646 11.3049C63.4646 11.3049 61.9738 11.5269 61.8358 11.5014C61.8358 11.5014 61.2008 11.6807 62.029 12.0991L60.7131 17.1197L60.1242 16.949C60.1242 16.949 60.3266 15.2157 59.1671 16.4537L57.8051 15.7621L58.9002 11.1086H56.7837C56.7837 11.1086 55.9003 11.0829 57.299 11.9881L56.3971 15.2413C56.3971 15.2413 53.8849 14.6521 52.7346 16.7611C52.7346 16.7611 51.7959 19.0836 55.0997 19.7069L54.391 22.3112C54.391 22.3112 55.615 21.6025 56.3051 21.6708L56.9309 19.3056C57.8972 18.7762 58.8082 18.1529 59.6364 17.4442C59.6364 17.4442 60.7039 17.7516 60.4646 17.9736C60.4646 17.9736 59.6088 21.3463 59.3972 21.4232C59.8113 22.0209 60.3726 22.5076 61.0536 22.8492C61.0536 22.8492 61.6609 23.0712 61.5045 22.388C61.5045 22.388 60.6763 21.4573 61.118 20.6974M55.3941 18.7336C53.0567 18.392 53.8113 16.7697 53.8113 16.7697C54.5751 15.3779 56.2592 16.0353 56.2592 16.0353L55.3941 18.7336ZM57.1517 18.1529L57.6947 16.4879L58.845 17.0429L57.1517 18.1529Z" fill="white"/>
<path d="M53.2294 23.1136C52.2999 21.978 51.6834 20.663 51.4349 19.2713C51.1773 17.8794 51.2877 16.4535 51.757 15.113C52.2263 13.7723 53.0454 12.5428 54.1404 11.5353C55.2356 10.5277 56.5791 9.77634 58.0515 9.33234C59.5331 8.88827 61.1067 8.76021 62.6435 8.97369C64.1803 9.18716 65.6527 9.72511 66.9134 10.5448C68.1833 11.3645 69.214 12.4489 69.9321 13.6955C70.6495 14.9507 71.0266 16.334 71.0364 17.7428C71.0913 19.4335 70.5757 21.09 69.5543 22.5074C69.8125 22.7977 70.0977 23.0624 70.4011 23.31C71.5144 21.7816 72.1497 20.0056 72.2234 18.1783C72.2965 16.351 71.8185 14.5323 70.8339 12.9356C69.8493 11.3389 68.395 10.0069 66.6373 9.10174C64.8797 8.19668 62.8735 7.74416 60.8582 7.79539C58.8337 7.84656 56.8644 8.40163 55.162 9.3921C53.4594 10.3826 52.0975 11.7829 51.2141 13.4308C50.3307 15.0788 49.9626 16.9146 50.1558 18.7418C50.349 20.5691 51.0853 22.3025 52.2999 23.7711C52.5945 23.5405 52.9073 23.3185 53.2294 23.1136Z" fill="white"/>
<path d="M45.8285 39.2449L49.1046 27.3165L49.3991 26.3857C49.3991 25.9845 49.8223 25.1903 49.3991 25.327C48.4052 25.4636 47.4205 25.6856 46.4819 26.01C46.4175 26.01 46.3438 26.0357 46.2978 26.0698C46.2426 26.1125 46.2058 26.1637 46.1874 26.2235C46.169 26.2833 46.1782 26.343 46.2058 26.4028C46.2334 26.4626 46.2794 26.5053 46.3347 26.5395C46.6291 26.6675 46.9236 26.7956 46.7855 27.4702L43.5003 39.1425C43.4359 39.3132 43.3898 39.4925 43.353 39.6718C43.2058 39.9365 43.215 40.0646 42.7733 40.0732C42.3316 40.2097 42.3408 40.7392 42.7733 40.7306H43.0678H45.4052H46.1322C46.4266 40.7306 46.4175 40.3378 46.2794 40.2012C45.8377 39.945 45.6905 39.8085 45.8285 39.2705" fill="white"/>
<path d="M42.6271 39.1438C42.4706 39.2889 42.2589 39.3828 42.0381 39.4085C41.7528 39.4085 41.7436 39.0157 41.8817 38.4778C41.8817 38.4778 43.4553 33.44 43.4553 32.5178C43.4553 31.4591 42.7007 30.0075 40.216 30.0246C37.7314 30.0416 35.9829 31.2456 35.9921 32.4324C36.0473 32.6373 36.1853 32.8081 36.3694 32.9276C36.5535 33.0472 36.7835 33.107 37.0136 33.0899C38.624 33.0899 38.3203 30.9638 39.9216 30.9552C41.0902 30.9552 41.5412 31.7408 41.2559 32.8166C40.6762 34.4048 33.8112 34.8403 33.8387 38.6827C33.8387 40.1343 34.7314 41.0565 36.1946 41.0479C38.0903 41.0479 39.397 39.4426 39.397 39.4426C39.397 39.4426 39.397 40.7661 40.5749 40.7576C41.7528 40.749 42.6271 39.5536 42.6271 39.5536V39.1438ZM40.124 36.8981C39.8387 38.0936 38.5412 39.5536 37.3725 39.5621C36.94 39.5621 36.3418 39.306 36.3418 38.2472C36.3418 36.3858 38.5136 35.4551 40.8418 34.5244L40.124 36.8981Z" fill="white"/>
<path d="M33.3571 34.0275C34.0841 33.6006 34.7282 33.0627 35.2436 32.4308C35.5288 32.1661 35.5288 31.7648 34.9491 31.9014C34.5902 32.0807 34.1945 32.1747 33.7803 32.1747L36.3479 23.2945V23.0298C36.4583 22.7907 36.6699 22.6029 36.9276 22.5004C37.3601 22.3638 37.3601 21.9625 36.9276 21.9625L33.5595 21.9881C33.265 21.9881 33.2742 22.3894 33.4122 22.5175C33.854 22.6456 34.1485 22.9103 34.0104 23.5763L31.5902 31.7904C29.6853 31.1415 27.9092 29.5704 26.1515 29.0495L27.716 23.3372V23.0725C27.8632 22.8078 27.8632 22.6711 28.2958 22.5431C28.7283 22.415 28.7283 22.0051 28.2958 22.0137H24.9276C24.6423 22.0137 24.6423 22.4065 24.7896 22.5431C25.2313 22.6711 25.5258 22.9358 25.2405 23.6019L23.8142 28.7678C21.3295 29.0495 19.7375 30.1168 19.7467 31.8331C19.7282 32.149 19.7835 32.4564 19.8939 32.7552C20.0043 33.0541 20.1884 33.3188 20.4185 33.5579C20.6485 33.7884 20.9338 33.9763 21.2466 34.1129C21.5595 34.2495 21.9001 34.3264 22.2497 34.3349L20.9614 39.236C20.897 39.4068 20.8602 39.5862 20.8234 39.7655C20.6761 40.0387 20.6761 40.1667 20.2344 40.1667C19.8019 40.2949 19.8019 40.8242 20.2344 40.8242H20.5289H22.8663H23.6025C23.8878 40.8242 23.8878 40.4315 23.7497 40.2949C23.5473 40.218 23.3817 40.0899 23.2804 39.9192C23.17 39.7484 23.1332 39.552 23.1607 39.3642L25.5902 31.0134C27.4951 32.0637 29.5472 33.4981 31.0196 34.019L29.584 39.1848C29.5197 39.3556 29.4644 39.5349 29.4368 39.7142C29.2896 39.9789 29.2896 40.107 28.8571 40.1155C28.4245 40.2522 28.4337 40.7816 28.8571 40.7816H29.1515H31.489H32.2159C32.5104 40.7816 32.5104 40.3888 32.354 40.2522C31.9215 39.9875 31.7651 39.8594 31.9123 39.3215L33.3571 34.0275ZM22.9583 32.1063C22.7375 32.2344 22.489 32.3198 22.2313 32.3795C22.0657 32.3967 21.9001 32.3795 21.7436 32.3369C21.5872 32.2942 21.4399 32.2173 21.3111 32.1149C21.1823 32.0124 21.0902 31.8929 21.0166 31.7562C20.943 31.6197 20.9062 31.4745 20.9062 31.3208C20.9062 30.6548 21.4859 29.9973 22.6546 29.9888C22.9491 29.9631 23.2528 30.0058 23.5289 30.1168L22.9583 32.1063Z" fill="white"/>
<path d="M58.9754 26.184V26.0559C59.1042 25.7144 59.4263 25.091 59.1594 24.9972H58.9662C57.9723 25.1423 56.9969 25.3729 56.049 25.6802C55.7546 25.6802 55.7637 26.0816 55.911 26.2096C56.3435 26.3377 56.4907 26.4658 56.3527 26.9952L56.2054 27.6612C55.9202 28.8566 55.4232 30.2142 55.2852 31.1364C55.0551 30.7607 54.7055 30.4533 54.2913 30.2484C53.8773 30.0435 53.4079 29.941 52.9294 29.9581C49.8466 29.9581 47.3987 33.5699 47.4171 36.7377C47.4448 39.5299 48.7699 40.8277 50.2331 40.8192C51.9815 40.8192 53.141 39.3505 53.4355 39.0773C53.4355 40.008 53.1503 40.8021 53.592 40.6655C54.0245 40.4008 56.0674 39.3335 56.3619 39.1969C56.6564 39.0602 56.4999 38.804 56.2054 38.6675C55.7729 38.6675 55.3312 38.6675 55.4693 37.8733L58.6809 27.1062L58.9754 26.184ZM54.2822 34.5689C54.1625 35.2861 53.9692 35.9949 53.7208 36.6865C53.2882 38.01 52.5613 39.2054 51.5398 39.2139C50.0766 39.2139 49.9294 37.899 49.9202 36.5755C49.9202 34.8593 51.1901 31.2815 53.3803 31.2645C54.2637 31.2645 54.6962 31.7768 54.7055 32.7075C54.6319 33.3479 54.4938 33.9712 54.2822 34.5689Z" fill="white"/>
<path d="M92.98 28.7783C92.9709 29.2479 92.8234 29.7004 92.5472 30.1017L92.6947 30.3665C92.6947 30.3665 94.5901 29.0344 94.572 27.4462C94.5998 27.1303 94.4982 26.8144 94.2777 26.5667C94.0564 26.3191 93.735 26.1654 93.3849 26.1227C92.998 26.1313 92.63 26.2679 92.3545 26.5155C92.0872 26.7631 91.9307 27.0961 91.9307 27.4462C91.9585 27.728 92.0594 28.0012 92.2438 28.2318C92.4282 28.4623 92.6766 28.6501 92.9619 28.7611" fill="white"/>
<path d="M76.2347 38.275C76.2347 38.275 77.8079 33.2372 77.9464 32.315C77.9464 31.2562 77.1915 29.8047 74.7067 29.8217C72.222 29.8388 70.4741 31.0427 70.4832 32.2296C70.5291 32.4175 70.6397 32.5797 70.7956 32.6992C70.9521 32.8187 71.1546 32.8871 71.3661 32.8871C73.1147 32.8871 72.6638 30.761 74.4214 30.7524C75.4527 30.7524 75.8847 31.538 75.5994 32.6139C75.1674 34.2021 68.3021 34.6375 68.3296 38.4799C68.3296 39.9314 69.2314 40.8536 70.5472 40.8451C72.5998 40.8451 73.8968 39.2398 73.8968 39.2398C73.8968 39.2398 73.8968 40.5547 74.928 40.5547C76.2438 40.5547 77.1177 39.3508 77.1177 39.3508V38.9495C76.9152 39.1202 76.6578 39.2142 76.3815 39.2227C76.2347 39.2227 76.2347 38.83 76.225 38.292M74.6149 36.6953C74.1918 37.8907 72.8851 39.3508 71.8637 39.3594C71.4309 39.3594 70.8324 39.1032 70.8324 38.0359C70.8324 36.1745 73.0048 35.2438 75.1945 34.3131L74.6149 36.6953Z" fill="white"/>
<path d="M59.9443 27.7785C59.659 28.5726 60.1007 29.1019 60.9749 29.1019C61.3891 29.0849 61.7848 28.9483 62.1068 28.7092C62.4197 28.4701 62.6405 28.1371 62.7234 27.7699C62.797 27.6248 62.8338 27.454 62.8154 27.2918C62.797 27.1295 62.7326 26.9759 62.6314 26.8392C62.5301 26.7026 62.3829 26.6002 62.2265 26.5319C62.07 26.4635 61.8859 26.4379 61.7019 26.4465C61.2878 26.4635 60.8921 26.6002 60.5792 26.8392C60.2479 27.0869 60.0271 27.4199 59.9443 27.7785Z" fill="white"/>
<path d="M98.7055 30.0652C98.0521 29.8347 97.3528 29.698 96.6536 29.681C96.1839 29.6639 95.7059 29.7322 95.264 29.8859C94.8222 30.0396 94.4172 30.2701 94.077 30.569C93.7367 30.8679 93.4695 31.2264 93.2851 31.6192C93.1014 32.012 93.0096 32.4389 93.0186 32.8659C93.0186 34.454 94.9419 35.3677 96.4052 36.2899C96.7085 36.4862 96.9569 36.7424 97.1413 37.0412C97.316 37.3401 97.4176 37.6646 97.4356 38.0061C97.4356 38.6636 96.7183 39.5943 95.255 39.6114H94.8131C93.4876 39.2271 93.4786 37.6389 93.4786 37.2376C93.4786 36.8363 92.8899 36.8449 92.7514 37.2376C92.6046 37.5024 92.4759 38.8258 92.3284 39.3552C92.7334 39.7651 93.2302 40.0895 93.8007 40.2859C94.4729 40.4567 95.1624 40.5421 95.8527 40.5335C96.8011 40.5421 97.7119 40.2091 98.3931 39.6114C99.0736 39.0137 99.4605 38.1939 99.4785 37.3401C99.4785 35.2225 97.4266 34.7102 95.7977 33.2586C95.5772 33.0964 95.4018 32.8915 95.2731 32.6695C95.1443 32.4389 95.0706 32.1913 95.0525 31.9437C95.0525 31.2862 95.6321 30.6202 96.8011 30.6117C97.1963 30.6459 97.5922 30.7397 97.9693 30.8679C98.853 31.124 98.9998 31.9181 98.862 32.5841C98.862 32.9769 99.5892 32.9769 99.5892 32.7122C99.7367 32.3194 100.022 31.5253 100.307 30.8507C99.8376 30.4921 99.2851 30.2274 98.6964 30.0737" fill="white"/>
<path d="M89.9284 29.7261C88.6036 29.7261 87.2968 30.802 87.0116 31.2033C86.864 30.5458 86.4229 29.7518 85.2449 29.7603C83.9382 29.7603 82.7602 30.8361 82.3274 31.2375V30.7081C82.4749 30.1787 82.6126 29.6493 81.8765 29.7774C81.0665 30.0421 80.2385 30.2726 79.4008 30.4604C79.1064 30.5971 79.1155 30.9898 79.4008 30.9898C79.6221 31.0411 79.8245 31.1606 79.9533 31.3314C80.091 31.5021 80.1557 31.7071 80.1377 31.9206L78.2965 38.9308C78.2325 39.1186 78.1309 39.2979 78.0022 39.4602C78.0112 39.5113 78.0112 39.5712 77.9932 39.6224C77.9751 39.6736 77.9472 39.7248 77.9013 39.759C77.8554 39.8017 77.8087 39.8273 77.7538 39.8444C77.6988 39.8615 77.6341 39.87 77.5792 39.8615C77.1463 39.9981 77.1463 40.519 77.5792 40.519H77.7259H80.0729H80.8001C81.2321 40.519 81.2321 40.1177 80.9378 39.9895C80.7444 39.8785 80.5976 39.7163 80.5148 39.5285C80.432 39.3406 80.423 39.1271 80.4869 38.9308L82.4749 31.912C82.6126 31.7498 82.7873 31.6132 82.9897 31.5278C83.1922 31.4338 83.4135 31.3826 83.6431 31.3741C84.6743 31.3741 84.6743 32.1596 84.5358 32.561L82.8151 38.8966C82.7511 39.0673 82.7045 39.2467 82.6774 39.426C82.5667 39.6651 82.3552 39.853 82.0978 39.964C82.024 39.964 81.9412 39.9895 81.8855 40.0408C81.8306 40.092 81.8027 40.1603 81.8027 40.2287C81.8027 40.2969 81.8306 40.3652 81.8855 40.4165C81.9412 40.4677 82.015 40.4933 82.0978 40.4933H82.3921H84.5727H85.4564C85.7507 40.4933 85.7417 40.1005 85.6032 39.964C85.1523 39.7078 84.867 39.5712 85.0146 38.9137L87.0116 32.1596V32.0145C87.1493 31.8096 87.3428 31.6388 87.5731 31.5278C87.8027 31.4083 88.0609 31.3485 88.3273 31.3485C88.4839 31.3485 88.6314 31.3826 88.7692 31.451C88.9069 31.5193 89.0266 31.6132 89.1094 31.7327C89.1922 31.8523 89.2479 31.9803 89.266 32.1255C89.2848 32.2621 89.266 32.4073 89.202 32.5353L87.4993 38.8966C87.4346 39.0673 87.3887 39.2467 87.3518 39.426C87.2419 39.6651 87.0394 39.853 86.7722 39.9554C86.6984 39.9554 86.6156 39.981 86.5607 40.0322C86.5057 40.0835 86.4779 40.1518 86.4779 40.2201C86.4779 40.2884 86.5057 40.3567 86.5607 40.408C86.6156 40.4592 86.6894 40.4848 86.7722 40.4848H87.0665H89.2569H90.1406C90.435 40.4848 90.4259 40.0835 90.2874 39.9554C89.8553 39.6907 89.5513 39.5626 89.6898 38.8966L91.5392 32.2707C91.8245 31.4766 91.6769 29.7518 89.9193 29.7688" fill="white"/>
<path d="M70.4865 31.0352C70.4865 30.6425 70.3389 29.8483 69.0141 29.8569C67.8452 29.8569 66.8329 31.0608 66.4004 31.7183L66.5384 30.7876C66.5384 30.2582 66.6857 29.7288 66.0967 29.8569C65.2409 30.1301 64.3575 30.3607 63.474 30.54C63.1887 30.6766 63.1887 31.0779 63.474 31.0693C63.7685 31.1975 64.3575 31.3255 64.2102 32L62.3605 39.0188C62.2961 39.1896 62.2501 39.3689 62.2133 39.5482C62.066 39.8044 61.928 39.941 61.6335 39.941C61.1918 40.0776 61.201 40.607 61.6335 40.607H61.9188H64.1182H64.9832C65.2777 40.607 65.2777 40.2142 65.1305 40.0776C64.6979 39.8214 64.4035 39.6848 64.5415 39.0273L65.9679 33.9896C66.4004 32.9308 66.9986 31.6073 67.4126 31.5988C68.0016 31.5988 67.8543 32.3929 68.7379 32.3843C69.1609 32.3843 69.5659 32.2562 69.879 32.0086C70.2012 31.761 70.4127 31.4195 70.4774 31.0523" fill="white"/>
<path d="M60.0184 39.0295L61.8681 32.0109L62.2914 30.8154C62.4294 30.286 62.5767 29.7566 61.9969 29.8847C61.408 30.0128 59.3651 30.5678 59.0705 30.5678C58.6381 30.7044 58.6381 31.0972 58.9326 31.0972C59.227 31.2253 59.8068 31.3534 59.5215 32.0279L57.6718 39.0552C57.6074 39.2259 57.5614 39.4052 57.5338 39.5846C57.3865 39.8407 57.3865 39.9774 56.9448 39.9859C56.5123 40.1225 56.5123 40.6519 56.9448 40.6434H57.2301H59.5767H60.3037C60.5889 40.6434 60.589 40.2421 60.451 40.1139C60.0092 39.8492 59.7147 39.7212 60 39.0552" fill="white"/>
</svg>
